<?xml version="1.0" encoding="UTF-8"?>
<svg id="Layer_2" data-name="Layer 2" xmlns="http://www.w3.org/2000/svg" viewBox="0 0 986.37 620.07">
  <defs>
    <style>
      .cls-1 {
        stroke-miterlimit: 10;
      }

      .cls-1, .cls-2, .cls-3 {
        stroke-width: 28.46px;
      }

      .cls-1, .cls-3 {
        fill: none;
        stroke: #0077b6;
      }

      .cls-2 {
        stroke: #4d2f91;
      }

      .cls-2, .cls-4 {
        fill: #ccebf3;
      }

      .cls-2, .cls-3 {
        stroke-linejoin: round;
      }

      .cls-5 {
        fill: #201e5a;
      }

      .cls-6 {
        fill: #2e3192;
      }

      .cls-7 {
        fill: #02b4d7;
      }
    </style>
  </defs>
  <g id="Layer_1-2" data-name="Layer 1">
    <g>
      <line class="cls-2" x1="303.22" y1="185.44" x2="348.69" y2="185.44"/>
      <path class="cls-2" d="M227.04,293.54s45.36,26.87,45.36,26.87"/>
      <path class="cls-2" d="M564.06,293.54s45.36,26.87,45.36,26.87"/>
      <line class="cls-2" x1="637.68" y1="185.44" x2="683.15" y2="185.44"/>
      <line class="cls-2" x1="473.17" y1="456.21" x2="513.2" y2="456.21"/>
      <path class="cls-2" d="M418.23,293.54s-45.36,26.87-45.36,26.87"/>
      <path class="cls-2" d="M769.01,293.54s-45.36,26.87-45.36,26.87"/>
      <g>
        <g>
          <polygon class="cls-7" points="184.18 370.61 328.67 285 473.17 370.61 328.67 456.21 184.18 370.61"/>
          <polygon class="cls-7" points="513.2 370.61 657.7 285 802.19 370.61 657.7 456.21 513.2 370.61"/>
          <polygon class="cls-7" points="972.14 99.84 827.65 185.44 683.15 99.84 827.65 14.23 972.14 99.84"/>
          <polygon class="cls-7" points="348.69 99.84 493.19 14.23 637.68 99.84 493.19 185.44 348.69 99.84"/>
          <polygon class="cls-7" points="14.23 99.84 158.72 14.23 303.22 99.84 158.72 185.44 14.23 99.84"/>
          <polygon class="cls-4" points="972.14 99.84 972.14 249.46 827.65 335.06 827.65 185.44 972.14 99.84"/>
          <polygon class="cls-5" points="827.65 185.44 827.65 335.06 683.15 249.46 683.15 99.84 827.65 185.44"/>
          <polygon class="cls-4" points="802.19 370.61 802.19 520.23 657.7 605.84 657.7 456.21 802.19 370.61"/>
          <polygon class="cls-5" points="657.7 456.21 657.7 605.84 513.2 520.23 513.2 370.61 657.7 456.21"/>
          <polygon class="cls-4" points="637.68 99.84 637.68 249.46 493.19 335.06 493.19 185.44 637.68 99.84"/>
          <polygon class="cls-5" points="493.19 185.44 493.19 335.06 348.69 249.46 348.69 99.84 493.19 185.44"/>
          <polygon class="cls-4" points="473.17 370.61 473.17 520.23 328.67 605.84 328.67 456.21 473.17 370.61"/>
          <polygon class="cls-5" points="328.67 456.21 328.67 605.84 184.18 520.23 184.18 370.61 328.67 456.21"/>
          <polygon class="cls-4" points="303.22 99.84 303.22 249.46 158.72 335.06 158.72 185.44 303.22 99.84"/>
          <polygon class="cls-5" points="158.72 185.44 158.72 335.06 14.23 249.46 14.23 99.84 158.72 185.44"/>
        </g>
        <g>
          <polyline class="cls-3" points="184.18 370.61 184.18 520.23 328.67 605.84 473.17 520.23 473.17 370.61"/>
          <polygon class="cls-3" points="473.17 370.61 328.67 285 184.18 370.61 328.67 456.21 473.17 370.61"/>
          <line class="cls-1" x1="328.67" y1="456.21" x2="328.67" y2="605.84"/>
          <polyline class="cls-3" points="513.2 370.61 513.2 520.23 657.7 605.84 802.19 520.23 802.19 370.61"/>
          <polygon class="cls-3" points="802.19 370.61 657.7 285 513.2 370.61 657.7 456.21 802.19 370.61"/>
          <line class="cls-1" x1="657.7" y1="456.21" x2="657.7" y2="605.84"/>
          <polyline class="cls-3" points="348.69 99.84 348.69 249.46 493.19 335.06 637.68 249.46 637.68 99.84"/>
          <polygon class="cls-3" points="637.68 99.84 493.19 14.23 348.69 99.84 493.19 185.44 637.68 99.84"/>
          <line class="cls-1" x1="493.19" y1="185.44" x2="493.19" y2="335.06"/>
          <polyline class="cls-3" points="683.15 99.84 683.15 249.46 827.65 335.06 972.14 249.46 972.14 99.84"/>
          <polygon class="cls-3" points="972.14 99.84 827.65 14.23 683.15 99.84 827.65 185.44 972.14 99.84"/>
          <line class="cls-1" x1="827.65" y1="185.44" x2="827.65" y2="335.06"/>
          <polyline class="cls-3" points="14.23 99.84 14.23 249.46 158.72 335.06 303.22 249.46 303.22 99.84"/>
          <polygon class="cls-3" points="303.22 99.84 158.72 14.23 14.23 99.84 158.72 185.44 303.22 99.84"/>
          <line class="cls-1" x1="158.72" y1="185.44" x2="158.72" y2="335.06"/>
        </g>
      </g>
      <path class="cls-6" d="M234.58,187.53c-5.11,2.92-9.37,6.51-12.8,10.76-3.43,4.25-6.02,8.94-7.77,14.06-1.75,5.12-2.63,10.48-2.63,16.07,0,5.75.99,10,2.97,12.75,1.98,2.75,4.7,4.09,8.17,4.01,3.47-.08,7.45-1.4,11.94-3.98,3.81-2.18,7.04-4.54,9.71-7.07,2.67-2.53,4.82-5.16,6.46-7.89,1.64-2.72,2.86-5.44,3.66-8.15.8-2.71,1.2-5.27,1.2-7.68v-6.88s8.8,3.94,8.8,3.94l-31.31,17.91v-16.55s39.76-22.75,39.76-22.75v49.53s-15.87,9.09-15.87,9.09l-1.49-10.92,2.06.57c-1.22,2.95-3.1,6.01-5.66,9.18-2.55,3.17-5.52,6.19-8.91,9.06-3.39,2.87-6.99,5.4-10.8,7.58-7.85,4.49-14.8,6.62-20.85,6.39-6.06-.22-10.8-2.66-14.23-7.3-3.43-4.64-5.14-11.39-5.15-20.25,0-8.7,1.79-17.44,5.37-26.21,3.58-8.77,8.61-16.93,15.08-24.48,6.47-7.55,14.05-13.81,22.74-18.78,6.78-3.88,12.89-6.11,18.34-6.7,5.45-.59,9.88.45,13.31,3.11,3.43,2.66,5.45,6.93,6.06,12.79l-19.42,11.11c-1.07-3.97-3.36-5.99-6.86-6.04-3.5-.05-7.47,1.18-11.88,3.71Z"/>
      <path class="cls-6" d="M592.12,244.2l-53.71,30.73v-86.25s53.69-30.73,53.69-30.73v17.48s-40.33,23.08-40.33,23.08l5.14-7.84v21.79s31.2-17.85,31.2-17.85v16.55s-31.19,17.85-31.19,17.85v22.73s-5.14-1.95-5.14-1.95l40.34-23.08v17.48Z"/>
      <path class="cls-6" d="M894.69,263.87l-31.67-68.14,19.77-11.31,16,34.44c.99,2.08,1.91,4.31,2.74,6.71.84,2.4,1.71,5.2,2.63,8.4,1.07-4.73,2.04-8.7,2.91-11.92.87-3.22,1.77-6.37,2.68-9.46l15.76-52.61,19.31-11.05-31.07,104.03-19.08,10.92Z"/>
      <path class="cls-6" d="M380.95,542.82l-19.31,11.05,30.15-103.51,18.05-10.33,30.07,69.05-19.65,11.24-5.94-14.78-27.31,15.62-6.05,21.65ZM398.42,480.37l-6.05,21.88,16.68-9.54-6.06-14.95c-.46-1.21-.91-2.47-1.37-3.76-.46-1.29-.76-2.4-.91-3.32-.15,1.1-.44,2.52-.86,4.28-.42,1.75-.9,3.56-1.43,5.42Z"/>
      <path class="cls-6" d="M746.49,436.72l.02,86.25-18.51,10.59-.02-86.25,18.51-10.59Z"/>
    </g>
  </g>
</svg>